<?xml version="1.0" encoding="UTF-8"?>
<svg id="Layer_2" data-name="Layer 2" xmlns="http://www.w3.org/2000/svg" viewBox="0 0 243.12 101.21">
  <defs>
    <style>
      .cls-1 {
        fill: #231f20;
      }
    </style>
  </defs>
  <g id="Layer_1-2" data-name="Layer 1">
    <g>
      <g>
        <path class="cls-1" d="m36.23,0h9.29v28.52h.29L68.99,0h10.38l-33.85,41.5v18.37h-9.29V0Zm17.62,27.91l5.5-7.19,22.08,39.15h-10.31l-17.27-31.96Z"/>
        <path class="cls-1" d="m198.53,0h10.69l19.77,59.87h-9.8l-9.65-32.61c-1.95-6.48-3.91-13.17-5.64-19.95h-.37c-1.8,6.78-3.65,13.46-5.6,19.95l-9.8,32.61h-9.4L198.53,0Z"/>
        <g>
          <rect class="cls-1" x="1.18" y="52.13" width="30.73" height="7.74"/>
          <rect class="cls-1" x="1.18" width="30.73" height="7.73"/>
          <rect class="cls-1" x="1.18" y="24.72" width="30.73" height="7.74"/>
        </g>
        <g>
          <rect class="cls-1" x="116.97" y="52.13" width="30.73" height="7.74"/>
          <rect class="cls-1" x="116.97" width="30.73" height="7.73"/>
          <rect class="cls-1" x="116.97" y="24.72" width="30.73" height="7.74"/>
        </g>
        <path class="cls-1" d="m98.83,34.34c7.61-2.27,12.7-7.81,12.7-17.01,0-12.95-9.26-17.34-21.54-17.34h-4.95l-5.97,7.38h9.83c8.74,0,13.52,2.61,13.52,9.96s-4.78,10.84-13.52,10.84h-20.07l4.12,7.38h16.64l13.63,24.32h10.34l-14.73-25.52Z"/>
        <polygon class="cls-1" points="161.06 0 161.06 24.5 187.29 24.5 184.54 32.56 161.06 32.56 161.06 59.87 151.81 59.87 151.81 0 161.06 0"/>
      </g>
      <g>
        <path class="cls-1" d="m2.31,84.84l.9-.96c1.51,1.64,3.7,2.69,6.16,2.69,3.21,0,5.22-1.63,5.22-3.97,0-2.51-1.76-3.29-3.87-4.19l-3.03-1.36c-1.86-.76-4.33-2-4.33-4.96s2.59-4.91,6.08-4.91c2.52,0,4.57,1.09,5.84,2.38l-.8.93c-1.23-1.24-2.92-2.04-5.07-2.04-2.78,0-4.66,1.4-4.66,3.56,0,2.32,2.15,3.2,3.74,3.84l3,1.35c2.38.99,4.5,2.23,4.5,5.27s-2.62,5.37-6.66,5.37c-3.04,0-5.39-1.24-7.02-3Z"/>
        <path class="cls-1" d="m33.07,67.55h1.4v8.73h9.99v-8.73h1.4v19.93h-1.4v-9.98h-9.99v9.98h-1.4v-19.93Z"/>
        <path class="cls-1" d="m62.41,77.45c0-6.32,3.1-10.26,7.45-10.26s7.44,3.93,7.44,10.26-3.1,10.4-7.44,10.4-7.45-4.05-7.45-10.4Zm13.43,0c0-5.54-2.41-8.99-5.98-8.99s-5.98,3.45-5.98,8.99,2.41,9.13,5.98,9.13,5.98-3.56,5.98-9.13Z"/>
        <path class="cls-1" d="m94.74,67.55h5.42c4.45,0,7.11,1.46,7.11,5.55s-2.66,5.81-7.11,5.81h-4.02v8.57h-1.4v-19.93Zm5.07,10.18c4.06,0,6.01-1.36,6.01-4.63s-1.96-4.38-6.01-4.38h-3.67v9.01h3.67Z"/>
        <path class="cls-1" d="m125.13,67.55h5.42c4.45,0,7.11,1.46,7.11,5.55s-2.66,5.81-7.11,5.81h-4.02v8.57h-1.4v-19.93Zm5.07,10.18c4.06,0,6.01-1.36,6.01-4.63s-1.96-4.38-6.01-4.38h-3.67v9.01h3.67Z"/>
        <path class="cls-1" d="m155.2,86.28h5.13v-17.53h-5.13v-1.2h11.65v1.2h-5.13v17.53h5.13v1.2h-11.65v-1.2Z"/>
        <path class="cls-1" d="m185.13,67.55h1.48l7.76,14.09,2.12,3.94h.06c-.05-1.92-.18-3.85-.18-5.78v-12.24h1.32v19.93h-1.48l-7.76-14.09-2.13-3.94h-.06c.05,1.94.18,3.75.18,5.67v12.36h-1.32v-19.93Z"/>
        <path class="cls-1" d="m214.51,77.47c0-6.32,3.46-10.28,8.6-10.28,2.61,0,4.24,1.26,5.3,2.38l-.83.92c-1-1.11-2.36-2.03-4.46-2.03-4.4,0-7.13,3.47-7.13,9s2.58,9.12,6.94,9.12c1.77,0,3.4-.56,4.32-1.5v-6.21h-4.59v-1.18h5.96v7.91c-1.22,1.31-3.2,2.25-5.77,2.25-4.97,0-8.32-4.03-8.32-10.37Z"/>
      </g>
    </g>
  </g>
</svg>