<svg width="18" height="19" viewBox="0 0 18 19" fill="none" xmlns="http://www.w3.org/2000/svg">
<path fill-rule="evenodd" clip-rule="evenodd" d="M11.2873 9.12619C12.6117 8.34296 13.5 6.90021 13.5 5.25C13.5 2.76472 11.4853 0.75 9 0.75C6.51472 0.75 4.5 2.76472 4.5 5.25C4.5 6.90021 5.38827 8.34296 6.71275 9.12619C3.16419 10.1233 0.5625 13.3828 0.5625 17.25C0.5625 17.7678 0.982233 18.1875 1.5 18.1875C2.01777 18.1875 2.4375 17.7678 2.4375 17.25C2.4375 13.6256 5.37563 10.6875 9 10.6875C12.6244 10.6875 15.5625 13.6256 15.5625 17.25C15.5625 17.7678 15.9822 18.1875 16.5 18.1875C17.0178 18.1875 17.4375 17.7678 17.4375 17.25C17.4375 13.3828 14.8358 10.1233 11.2873 9.12619ZM11.625 5.25C11.625 6.69975 10.4497 7.875 9 7.875C7.55025 7.875 6.375 6.69975 6.375 5.25C6.375 3.80025 7.55025 2.625 9 2.625C10.4497 2.625 11.625 3.80025 11.625 5.25Z" fill="#13121B"/>
</svg>
