<svg width="19" height="20" viewBox="0 0 19 20" fill="none" xmlns="http://www.w3.org/2000/svg">
<path fill-rule="evenodd" clip-rule="evenodd" d="M11.4577 13.8719C10.309 14.587 8.95272 15 7.5 15C3.35786 15 0 11.6421 0 7.5C0 3.35786 3.35786 0 7.5 0C11.6421 0 15 3.35786 15 7.5C15 9.4657 14.2438 11.2548 13.0064 12.5922L18.7071 18.2929C19.0976 18.6834 19.0976 19.3166 18.7071 19.7071C18.3166 20.0976 17.6834 20.0976 17.2929 19.7071L11.4577 13.8719ZM13 7.5C13 10.5376 10.5376 13 7.5 13C4.46243 13 2 10.5376 2 7.5C2 4.46243 4.46243 2 7.5 2C10.5376 2 13 4.46243 13 7.5Z" fill="#13121B"/>
</svg>
